<svg viewBox="0 0 100 100" width="1024" height="1024" class="" xmlns="http://www.w3.org/2000/svg" data-fg-dmg0="41.67:41.5248:/src/app/components/Logo.tsx:55:5:1884:2706:e:svg:etxte" data-fgid-dmg0=":r8p:"><defs data-fg-dmg1="41.67:41.5248:/src/app/components/Logo.tsx:62:7:2041:506:e:defs:xtete"><clipPath id="clip-left-:r8o:" data-fg-dmg3="41.67:41.5248:/src/app/components/Logo.tsx:70:9:2312:105:e:clipPath:e"><path d="M 46 2 A 40 40 0 0 0 46 82 Z" data-fg-dmg4="41.67:41.5248:/src/app/components/Logo.tsx:71:11:2356:41:e:path"/></clipPath><clipPath id="clip-right-:r8o:" data-fg-dmg5="41.67:41.5248:/src/app/components/Logo.tsx:73:9:2426:107:e:clipPath:e"><path d="M 54 18 A 40 40 0 0 1 54 98 Z" data-fg-dmg6="41.67:41.5248:/src/app/components/Logo.tsx:74:11:2471:42:e:path"/></clipPath></defs><g transform="rotate(-20 50 50)" data-fg-dmg8="41.67:41.5248:/src/app/components/Logo.tsx:79:7:2665:1914:e:g:xtetxtetxtx"><g clip-path="url(#clip-left-:r8o:)" data-fg-dmg10="41.67:41.5248:/src/app/components/Logo.tsx:82:9:2757:764:e:g:xtxte"><rect x="0" y="0" width="100" height="100" fill="#9426D9" data-fg-dmg12="41.67:41.5248:/src/app/components/Logo.tsx:83:26:2821:59:e:rect"/><g fill="#F4E9FB" stroke="#F4E9FB" stroke-width="4" stroke-linecap="round" stroke-linejoin="round" data-fg-dmg14="41.67:41.5248:/src/app/components/Logo.tsx:86:11:2938:570:e:g:xtetxtetetetete"><polygon points="50,30 69,44 62,66 38,66 31,44" stroke-width="2" data-fg-dmg16="41.67:41.5248:/src/app/components/Logo.tsx:88:13:3108:66:e:polygon"/><line x1="50" y1="30" x2="50" y2="-10" data-fg-dmg18="41.67:41.5248:/src/app/components/Logo.tsx:91:13:3236:41:e:line"/><line x1="69" y1="44" x2="110" y2="30" data-fg-dmg19="41.67:41.5248:/src/app/components/Logo.tsx:92:13:3290:41:e:line"/><line x1="62" y1="66" x2="90" y2="110" data-fg-dmg20="41.67:41.5248:/src/app/components/Logo.tsx:93:13:3344:41:e:line"/><line x1="38" y1="66" x2="10" y2="110" data-fg-dmg21="41.67:41.5248:/src/app/components/Logo.tsx:94:13:3398:41:e:line"/><line x1="31" y1="44" x2="-10" y2="30" data-fg-dmg22="41.67:41.5248:/src/app/components/Logo.tsx:95:13:3452:41:e:line"/></g></g><g clip-path="url(#clip-right-:r8o:)" data-fg-dmg24="41.67:41.5248:/src/app/components/Logo.tsx:100:9:3576:673:e:g:xtxte"><rect x="0" y="0" width="100" height="100" fill="#9426D9" data-fg-dmg26="41.67:41.5248:/src/app/components/Logo.tsx:101:26:3641:60:e:rect"/><g fill="#F4E9FB" stroke="#F4E9FB" stroke-width="4" stroke-linecap="round" stroke-linejoin="round" data-fg-dmg28="41.67:41.5248:/src/app/components/Logo.tsx:104:11:3759:477:e:g:etetetetete"><polygon points="50,30 69,44 62,66 38,66 31,44" stroke-width="2" data-fg-dmg29="41.67:41.5248:/src/app/components/Logo.tsx:105:13:3885:66:e:polygon"/><line x1="50" y1="30" x2="50" y2="-10" data-fg-dmg30="41.67:41.5248:/src/app/components/Logo.tsx:106:13:3964:41:e:line"/><line x1="69" y1="44" x2="110" y2="30" data-fg-dmg31="41.67:41.5248:/src/app/components/Logo.tsx:107:13:4018:41:e:line"/><line x1="62" y1="66" x2="90" y2="110" data-fg-dmg32="41.67:41.5248:/src/app/components/Logo.tsx:108:13:4072:41:e:line"/><line x1="38" y1="66" x2="10" y2="110" data-fg-dmg33="41.67:41.5248:/src/app/components/Logo.tsx:109:13:4126:41:e:line"/><line x1="31" y1="44" x2="-10" y2="30" data-fg-dmg34="41.67:41.5248:/src/app/components/Logo.tsx:110:13:4180:41:e:line"/></g></g></g></svg>